<svg width="668" height="113" viewBox="0 0 668 113" fill="none" xmlns="http://www.w3.org/2000/svg">
<path d="M622.1 83.072C615.956 83.072 610.367 82.0053 605.332 79.872C600.383 77.6533 596.116 74.624 592.532 70.784C589.033 66.944 586.303 62.5493 584.34 57.6C582.463 52.5653 581.524 47.232 581.524 41.6C581.524 34.688 582.847 28.6293 585.492 23.424C588.223 18.2187 591.807 13.9093 596.244 10.496C600.681 6.99734 605.545 4.39467 610.836 2.688C616.127 0.981339 621.375 0.128006 626.58 0.128006C632.895 0.128006 638.527 1.28001 643.476 3.58401C648.511 5.80268 652.777 8.83201 656.276 12.672C659.775 16.512 662.42 20.864 664.212 25.728C666.089 30.592 667.028 35.584 667.028 40.704C667.028 46.6773 665.833 52.224 663.444 57.344C661.055 62.464 657.769 66.944 653.588 70.784C649.492 74.624 644.713 77.6533 639.252 79.872C633.876 82.0053 628.159 83.072 622.1 83.072ZM626.58 80.384C632.383 80.384 637.588 79.0187 642.196 76.288C646.804 73.472 650.473 69.376 653.204 64C655.935 58.624 657.3 52.0533 657.3 44.288C657.3 36.2667 655.807 29.184 652.82 23.04C649.919 16.8107 645.737 11.9467 640.276 8.44801C634.9 4.86401 628.543 3.07201 621.204 3.07201C611.732 3.07201 604.351 6.14401 599.06 12.288C593.855 18.3467 591.252 26.624 591.252 37.12C591.252 43.1787 592.063 48.8533 593.684 54.144C595.391 59.3493 597.823 63.9573 600.98 67.968C604.137 71.8933 607.892 74.9653 612.244 77.184C616.596 79.3173 621.375 80.384 626.58 80.384Z" fill="white"/>
<path d="M482.628 80C485.103 80.4267 488.047 80.8107 491.46 81.152C494.873 81.4933 498.713 81.4507 502.98 81.024C508.783 84.7787 515.652 88.3627 523.588 91.776C531.609 95.2747 540.143 98.3467 549.188 100.992C558.233 103.723 567.321 105.813 576.452 107.264C585.668 108.8 594.329 109.568 602.436 109.568C614.212 109.568 623.556 108.501 630.468 106.368C630.639 106.283 630.809 106.453 630.98 106.88C631.151 107.392 631.108 107.691 630.852 107.776C629.401 108.288 627.183 108.928 624.196 109.696C621.295 110.549 617.497 111.275 612.804 111.872C608.111 112.555 602.436 112.896 595.78 112.896C589.721 112.896 582.767 112.469 574.916 111.616C567.151 110.763 558.575 109.141 549.188 106.752C539.801 104.448 529.561 101.12 518.468 96.768C507.375 92.5013 495.428 86.912 482.628 80ZM492.1 83.072C485.956 83.072 480.367 82.0053 475.332 79.872C470.383 77.6533 466.116 74.624 462.532 70.784C459.033 66.944 456.303 62.5493 454.34 57.6C452.463 52.5653 451.524 47.232 451.524 41.6C451.524 34.688 452.847 28.6293 455.492 23.424C458.223 18.2187 461.807 13.9093 466.244 10.496C470.681 6.99734 475.545 4.39467 480.836 2.688C486.127 0.981339 491.375 0.128006 496.58 0.128006C502.895 0.128006 508.527 1.28001 513.476 3.58401C518.511 5.80268 522.777 8.83201 526.276 12.672C529.775 16.512 532.42 20.864 534.212 25.728C536.089 30.592 537.028 35.584 537.028 40.704C537.028 46.6773 535.833 52.224 533.444 57.344C531.055 62.464 527.769 66.944 523.588 70.784C519.492 74.624 514.713 77.6533 509.252 79.872C503.876 82.0053 498.159 83.072 492.1 83.072ZM496.58 80.384C502.383 80.384 507.588 79.0187 512.196 76.288C516.804 73.472 520.473 69.376 523.204 64C525.935 58.624 527.3 52.0533 527.3 44.288C527.3 36.2667 525.807 29.184 522.82 23.04C519.919 16.8107 515.737 11.9467 510.276 8.44801C504.9 4.86401 498.543 3.07201 491.204 3.07201C481.732 3.07201 474.351 6.14401 469.06 12.288C463.855 18.3467 461.252 26.624 461.252 37.12C461.252 43.1787 462.063 48.8533 463.684 54.144C465.391 59.3493 467.823 63.9573 470.98 67.968C474.137 71.8933 477.892 74.9653 482.244 77.184C486.596 79.3173 491.375 80.384 496.58 80.384Z" fill="#C9A96E"/>
<path d="M335.612 67.584V4.48L338.556 4.73601V67.584C338.556 72.0213 339.324 75.2213 340.86 77.184C342.396 79.0613 344.956 80 348.54 80C348.796 80 348.924 80.256 348.924 80.768C348.924 81.28 348.796 81.536 348.54 81.536C346.833 81.536 345.084 81.4933 343.292 81.408C341.5 81.3227 339.495 81.28 337.276 81.28C335.143 81.28 333.095 81.3227 331.132 81.408C329.169 81.4933 327.292 81.536 325.5 81.536C325.329 81.536 325.244 81.28 325.244 80.768C325.244 80.256 325.329 80 325.5 80C329.255 80 331.857 79.0613 333.308 77.184C334.844 75.2213 335.612 72.0213 335.612 67.584ZM400.124 83.072C400.124 83.2427 399.911 83.328 399.484 83.328C399.057 83.4133 398.759 83.4133 398.588 83.328L339.708 12.032C336.807 8.53334 334.204 6.18667 331.9 4.992C329.681 3.71201 327.548 3.07201 325.5 3.07201C325.244 3.07201 325.116 2.81601 325.116 2.30401C325.116 1.79201 325.244 1.53601 325.5 1.53601C327.036 1.53601 328.572 1.57868 330.108 1.66401C331.729 1.74934 333.18 1.79201 334.46 1.79201C335.996 1.79201 337.447 1.74934 338.812 1.66401C340.177 1.57868 341.201 1.53601 341.884 1.53601C342.993 1.53601 343.761 2.04801 344.188 3.07201C344.615 4.01067 345.852 5.71734 347.9 8.19201L399.1 71.04L400.124 83.072ZM400.124 15.616V83.072L397.18 79.104V15.616C397.18 11.1787 396.412 7.97867 394.876 6.01601C393.425 4.05334 390.951 3.07201 387.452 3.07201C387.281 3.07201 387.196 2.81601 387.196 2.30401C387.196 1.79201 387.281 1.53601 387.452 1.53601C389.159 1.53601 390.908 1.62134 392.7 1.79201C394.577 1.87734 396.583 1.92001 398.716 1.92001C400.764 1.92001 402.769 1.87734 404.732 1.79201C406.78 1.62134 408.657 1.53601 410.364 1.53601C410.62 1.53601 410.748 1.79201 410.748 2.30401C410.748 2.81601 410.62 3.07201 410.364 3.07201C406.695 3.07201 404.049 4.05334 402.428 6.01601C400.892 7.97867 400.124 11.1787 400.124 15.616Z" fill="white"/>
<path d="M223.209 46.336L224.489 43.776H258.409L259.305 46.336H223.209ZM287.849 80C288.19 80 288.361 80.256 288.361 80.768C288.361 81.28 288.19 81.536 287.849 81.536C285.374 81.536 282.857 81.4507 280.297 81.28C277.737 81.1093 275.262 81.024 272.873 81.024C270.228 81.024 267.924 81.1093 265.961 81.28C263.998 81.4507 261.822 81.536 259.433 81.536C259.092 81.536 258.921 81.28 258.921 80.768C258.921 80.256 259.092 80 259.433 80C263.956 80 266.772 79.36 267.881 78.08C268.99 76.7147 268.692 74.1973 266.985 70.528L238.569 10.496L241.769 6.528L216.937 65.28C214.804 70.4853 214.676 74.24 216.553 76.544C218.43 78.848 222.142 80 227.689 80C228.116 80 228.329 80.256 228.329 80.768C228.329 81.28 228.116 81.536 227.689 81.536C225.129 81.536 222.782 81.4507 220.649 81.28C218.516 81.1093 215.828 81.024 212.585 81.024C209.513 81.024 207.038 81.1093 205.161 81.28C203.369 81.4507 201.15 81.536 198.505 81.536C198.164 81.536 197.993 81.28 197.993 80.768C197.993 80.256 198.164 80 198.505 80C200.809 80 202.814 79.5733 204.521 78.72C206.228 77.7813 207.806 76.2027 209.257 73.984C210.793 71.68 212.457 68.3947 214.249 64.128L241.257 0.384003C241.428 0.128001 241.726 0 242.153 0C242.58 0 242.836 0.128001 242.921 0.384003L273.129 64C275.092 68.1813 276.841 71.4667 278.377 73.856C279.913 76.16 281.406 77.7813 282.857 78.72C284.393 79.5733 286.057 80 287.849 80Z" fill="white"/>
<path d="M121.807 12.032V70.656C121.807 72.96 122.063 74.7093 122.575 75.904C123.087 77.0987 124.068 77.9093 125.519 78.336C127.055 78.6773 129.231 78.848 132.047 78.848H145.999C150.948 78.848 154.874 77.312 157.775 74.24C160.676 71.0827 162.554 66.9867 163.407 61.952C163.407 61.696 163.62 61.6107 164.047 61.696C164.559 61.696 164.815 61.824 164.815 62.08C164.559 64.384 164.303 67.2 164.047 70.528C163.791 73.7707 163.663 76.8 163.663 79.616C163.663 80.896 163.023 81.536 161.743 81.536H102.607C102.436 81.536 102.351 81.28 102.351 80.768C102.351 80.256 102.436 80 102.607 80C105.679 80 107.983 79.7867 109.519 79.36C111.14 78.9333 112.207 78.08 112.719 76.8C113.231 75.52 113.487 73.6427 113.487 71.168V11.904C113.487 9.42934 113.231 7.59468 112.719 6.40001C112.207 5.12001 111.14 4.26667 109.519 3.84C107.983 3.32801 105.679 3.07201 102.607 3.07201C102.436 3.07201 102.351 2.81601 102.351 2.30401C102.351 1.79201 102.436 1.53601 102.607 1.53601C104.655 1.53601 106.959 1.62134 109.519 1.79201C112.079 1.87734 114.767 1.92001 117.583 1.92001C120.57 1.92001 123.343 1.87734 125.903 1.79201C128.463 1.62134 130.724 1.53601 132.687 1.53601C132.943 1.53601 133.071 1.79201 133.071 2.30401C133.071 2.81601 132.943 3.07201 132.687 3.07201C129.615 3.07201 127.268 3.32801 125.647 3.84C124.111 4.26667 123.087 5.12001 122.575 6.40001C122.063 7.68001 121.807 9.55734 121.807 12.032Z" fill="white"/>
<path d="M33.152 37.76L34.56 36.352C39.5947 36.352 43.9893 37.2907 47.744 39.168C51.584 41.0453 54.528 43.6053 56.576 46.848C58.7093 50.0907 59.776 53.8027 59.776 57.984C59.776 62.5067 58.6667 66.6027 56.448 70.272C54.2293 73.9413 51.1573 76.8427 47.232 78.976C43.392 81.024 39.0827 82.048 34.304 82.048C31.5733 82.048 28.4587 81.92 24.96 81.664C21.5467 81.408 18.3893 81.28 15.488 81.28C12.672 81.28 9.94133 81.3227 7.296 81.408C4.736 81.4933 2.38933 81.536 0.256 81.536C0.0853333 81.536 0 81.28 0 80.768C0 80.256 0.0853333 80 0.256 80C3.328 80 5.67467 79.7867 7.296 79.36C8.91733 78.9333 10.0267 78.08 10.624 76.8C11.2213 75.52 11.52 73.6427 11.52 71.168V11.904C11.52 9.42934 11.2213 7.59468 10.624 6.40001C10.112 5.12001 9.04533 4.26667 7.424 3.84C5.888 3.32801 3.584 3.07201 0.512 3.07201C0.256 3.07201 0.128 2.81601 0.128 2.30401C0.128 1.79201 0.256 1.53601 0.512 1.53601C2.56 1.53601 4.864 1.62134 7.424 1.79201C9.984 1.87734 12.672 1.92001 15.488 1.92001C17.7067 1.92001 20.2667 1.79201 23.168 1.53601C26.0693 1.28001 28.544 1.15201 30.592 1.15201C35.6267 1.15201 39.7227 1.92001 42.88 3.45601C46.0373 4.90667 48.3413 6.91201 49.792 9.47201C51.328 12.032 52.096 14.8907 52.096 18.048C52.096 22.912 50.304 27.0507 46.72 30.464C43.2213 33.8773 38.6987 36.3093 33.152 37.76ZM27.776 3.07201C25.8133 3.07201 24.2347 3.24267 23.04 3.58401C21.8453 3.92534 20.992 4.73601 20.48 6.01601C19.968 7.21067 19.712 9.25867 19.712 12.16V37.248L15.616 36.224C18.3467 36.3947 20.608 36.5227 22.4 36.608C24.192 36.608 25.216 36.608 25.472 36.608C32.0427 36.608 36.736 34.944 39.552 31.616C42.368 28.2027 43.776 24.0213 43.776 19.072C43.776 16.0853 43.2213 13.3973 42.112 11.008C41.088 8.53334 39.424 6.61334 37.12 5.24801C34.816 3.79734 31.7013 3.07201 27.776 3.07201ZM32.384 79.744C38.784 79.744 43.4347 78.1227 46.336 74.88C49.3227 71.552 50.816 66.9867 50.816 61.184C50.816 54.784 48.9387 49.536 45.184 45.44C41.4293 41.344 36.1813 39.296 29.44 39.296C27.3067 39.2107 25.088 39.2107 22.784 39.296C20.5653 39.3813 18.304 39.5947 16 39.936L19.712 38.528V71.168C19.712 73.216 20.0107 74.88 20.608 76.16C21.2053 77.44 22.4 78.3787 24.192 78.976C26.0693 79.488 28.8 79.744 32.384 79.744Z" fill="white"/>
</svg>
